<?xml version="1.0" encoding="UTF-8"?>
<!DOCTYPE svg PUBLIC "-//W3C//DTD SVG 1.1//EN" "http://www.w3.org/Graphics/SVG/1.1/DTD/svg11.dtd">
<svg xmlns="http://www.w3.org/2000/svg" version="1.1" width="264px" height="328px" style="shape-rendering:geometricPrecision; text-rendering:geometricPrecision; image-rendering:optimizeQuality; fill-rule:evenodd; clip-rule:evenodd" xmlns:xlink="http://www.w3.org/1999/xlink">
<g><path style="opacity:0.903" fill="#425358" d="M 54.5,34.5 C 108.167,34.5 161.833,34.5 215.5,34.5C 215.97,89.5286 215.47,144.529 214,199.5C 209.134,222.686 196.8,240.686 177,253.5C 176.501,259.491 176.334,265.491 176.5,271.5C 172.5,271.5 168.5,271.5 164.5,271.5C 164.833,239.16 164.5,206.826 163.5,174.5C 144.078,164.372 124.578,154.372 105,144.5C 84.97,154.932 64.8033,164.932 44.5,174.5C 44.3343,170.154 44.501,165.821 45,161.5C 48,159.833 51,158.167 54,156.5C 54.5,115.835 54.6667,75.168 54.5,34.5 Z M 62.5,42.5 C 81.1667,42.5 99.8333,42.5 118.5,42.5C 120.768,55.0735 123.435,67.5735 126.5,80C 126.355,80.772 126.022,81.4387 125.5,82C 118.67,85.5806 112.003,89.4139 105.5,93.5C 91.5,84.1667 77.5,74.8333 63.5,65.5C 62.5025,57.8622 62.1692,50.1955 62.5,42.5 Z M 125.5,42.5 C 134.192,42.1686 142.859,42.502 151.5,43.5C 155.042,49.4176 158.708,55.2509 162.5,61C 152.833,66.5 143.167,72 133.5,77.5C 129.824,66.1276 127.157,54.4609 125.5,42.5 Z M 159.5,42.5 C 170.838,42.3335 182.172,42.5001 193.5,43C 185.167,47.8333 176.833,52.6667 168.5,57.5C 165.048,52.7274 162.048,47.7274 159.5,42.5 Z M 205.5,43.5 C 206.663,68.6633 206.83,93.9967 206,119.5C 194.701,101.067 183.534,82.5668 172.5,64C 183.389,56.9352 194.389,50.1019 205.5,43.5 Z M 165.5,66.5 C 179.226,88.2691 192.726,110.269 206,132.5C 206.667,142.167 206.667,151.833 206,161.5C 184.333,146.833 162.667,132.167 141,117.5C 138.344,106.559 136.344,95.5586 135,84.5C 145.312,78.5997 155.479,72.5997 165.5,66.5 Z M 62.5,73.5 C 74.6139,81.0636 86.6139,88.897 98.5,97C 86.9632,104.033 75.2965,110.866 63.5,117.5C 62.5007,102.848 62.1674,88.1818 62.5,73.5 Z M 132.5,111.5 C 125.528,107.011 118.528,102.511 111.5,98C 116.703,94.6342 122.036,91.4676 127.5,88.5C 129.956,95.9906 131.623,103.657 132.5,111.5 Z M 140.5,148.5 C 128.584,142.958 116.751,137.292 105,131.5C 90.5943,137.703 76.5943,144.703 63,152.5C 62.3333,143.5 62.3333,134.5 63,125.5C 77,117.5 91,109.5 105,101.5C 115,108.167 125,114.833 135,121.5C 137.285,130.424 139.118,139.424 140.5,148.5 Z M 143.5,127.5 C 164.452,141.278 185.285,155.278 206,169.5C 210.025,199.451 200.358,223.784 177,242.5C 176.833,217.16 176.333,191.827 175.5,166.5C 166.833,162.167 158.167,157.833 149.5,153.5C 146.863,144.984 144.863,136.317 143.5,127.5 Z"/></g>
<g><path style="opacity:0.977" fill="#425358" d="M 86.5,216.5 C 98.8333,216.5 111.167,216.5 123.5,216.5C 123.5,231.5 123.5,246.5 123.5,261.5C 111.167,261.5 98.8333,261.5 86.5,261.5C 86.5,246.5 86.5,231.5 86.5,216.5 Z"/></g>
<g><path style="opacity:0.82" fill="#425358" d="M 50.5,275.5 C 55.4905,278.973 60.1571,283.139 64.5,288C 81.2645,300.19 99.9312,304.523 120.5,301C 121.991,303.022 121.658,304.688 119.5,306C 90.0985,311.261 66.4318,302.094 48.5,278.5C 49.1925,277.482 49.8592,276.482 50.5,275.5 Z"/></g>
</svg>
