<svg id="toothSVG" class="tooth-svg"
     xmlns="http://www.w3.org/2000/svg" version="1.1"
     viewBox="0 0 141.7 214.1"
     style="shape-rendering:geometricPrecision; text-rendering:optimizeQuality;">
  <g>
    <!-- former <rect x="39.7" y="141.4" width="26.1" height="31.4" /> -->
    <path class="tooth-path" fill="#3D4C51"
          d="M39.7 141.4h26.1v31.4H39.7Z" />

    <path class="tooth-path" fill="#3D4C51"
      d="M127.5,11H87.5H83H65.4h-3.9H16.9v18.3v4.6v40.3v4.4v19.8l-7.1,3.6l0.1,4.3l0.1,4.5L52.7,89L95.9,111v69h3.9
         h3.9v-12.8c2.4-1.5,4.7-3.1,6.9-4.9c2.1-1.8,4.1-3.7,6-5.7c2.5-2.7,4.7-5.7,6.6-8.8c1-1.6,1.8-3.2,2.6-4.9
         c0.8-1.7,1.5-3.4,2.2-5.1c2.2-6.1,3.5-12.8,3.5-19.7V111v-4.6V90v-7.3V13.2V11H127.5z M117.9,16.5L97.9,28l-7-11.5H117.9z
         M86.3,16.5l8.2,13.4L72.2,42.6l-5.6-26.1H86.3z M73.7,67.5L56.6,56l13-7.4L73.7,67.5z M22.3,16.5h40.4l6,28.1l-15.7,9L22.3,33
         V16.5z M22.3,37.6l26.9,18.1L22.3,71.2V37.6z M52.7,80.3L22.3,95.8V75.6l30.5-17.4l22,14.8l4.5,20.9L52.7,80.3z M125.9,118.2
         c0,17.6-8.8,33.1-22.2,42.5v-54.5l-20-10.1l-4.3-20l46.5,31.3V118.2z M125.9,102.7l-47.7-32l-5.2-24l23.4-13.4l29.4,47.9V102.7z
         M125.9,73.7l-26-42.5l25.8-14.8h0.2V73.7z" />

    <path class="tooth-path" fill="#3D4C51"
      d="M52.7,205.8c-26.9,0-40.1-20.4-40.3-20.6l2.7-1.7c0.6,1,16.1,24.7,48.6,18l0.6,3.1
         C60.3,205.4,56.4,205.8,52.7,205.8z"/>
  </g>
</svg>
