<?xml version="1.0" encoding="utf-8"?>
<!-- Generator: Adobe Illustrator 28.0.0, SVG Export Plug-In . SVG Version: 6.00 Build 0)  -->
<svg class="logo-draw" version="1.1" id="Calque_1" xmlns="http://www.w3.org/2000/svg" xmlns:xlink="http://www.w3.org/1999/xlink" x="0px" y="0px"
	 viewBox="0 0 283.5 174.1" style="enable-background:new 0 0 283.5 174.1;" xml:space="preserve">
<g>
	<g id="logoText">
		<path class="st0 draw" d="M29.7,112.6c1.2,0.2,2.4,0.6,3.5,1.2c0.2,0.1,0.3,0.2,0.4,0.3c0,0.1,0.1,0.3,0.1,0.6l0.5,5.1
			c0,0.1-0.1,0.1-0.2,0.2c-0.2,0-0.2,0-0.3-0.1c-1.4-4.6-4.2-6.9-8.6-6.9c-2.2,0-4.2,0.5-5.9,1.5c-1.7,1-3,2.5-4,4.4
			c-1,1.9-1.4,4.1-1.4,6.6c0,2.4,0.5,4.6,1.6,6.6c1,2,2.4,3.5,4.2,4.7c1.8,1.1,3.7,1.7,5.8,1.7c2.2,0,4-0.5,5.4-1.6
			c1.4-1.1,2.5-2.8,3.3-5.1c0-0.1,0.1-0.1,0.2-0.1c0.1,0,0.2,0.1,0.2,0.1l-0.4,4.6c-0.1,0.3-0.1,0.5-0.1,0.6c0,0.1-0.2,0.2-0.4,0.3
			c-1.4,0.7-2.7,1.1-4,1.4c-1.3,0.3-2.7,0.4-4.3,0.4c-2.9,0-5.5-0.6-7.8-1.7c-2.3-1.1-4.1-2.7-5.3-4.8c-1.3-2.1-1.9-4.4-1.9-7.1
			c0-2.6,0.6-4.9,1.9-6.9c1.3-2,3.1-3.6,5.4-4.7c2.3-1.1,4.9-1.7,7.8-1.7C27.1,112.2,28.5,112.3,29.7,112.6z"/>
		<path class="st0 draw" d="M52.9,136.3c0.1,0,0.2,0.1,0.2,0.2c0,0.1,0,0.2-0.1,0.3l-4.3,2c-0.1,0.1-0.2,0.1-0.4,0.1
			c-0.4,0-0.7-0.2-1-0.7c-0.3-0.5-0.5-1.1-0.6-2l-2.1,1.4c-0.7,0.5-1.3,0.8-1.8,1c-0.5,0.2-1.1,0.3-1.7,0.3c-1,0-1.9-0.3-2.4-0.8
			s-0.9-1.2-0.9-2c0-0.9,0.4-1.6,1.1-2.2c0.7-0.6,1.8-1.2,3.4-1.8l4.4-1.6v-2.7c0-1.7-0.2-2.9-0.6-3.6c-0.4-0.7-1.1-1.1-1.9-1.1
			c-0.9,0-1.6,0.3-2.1,1c-0.5,0.6-0.8,1.4-0.9,2.2c-0.2,1.2-0.7,1.8-1.7,1.8c-0.5,0-0.9-0.1-1.1-0.4c-0.2-0.2-0.4-0.6-0.4-0.9
			c0-0.7,0.4-1.4,1.3-2.1c0.9-0.7,1.9-1.3,3.1-1.7c1.2-0.4,2.3-0.7,3.3-0.7c1.1,0,2,0.4,2.6,1.1c0.6,0.7,0.9,1.8,0.9,3.2v7.7
			c0,0.9,0.1,1.6,0.4,2.1c0.3,0.4,0.7,0.7,1.2,0.7C51.4,136.8,52,136.6,52.9,136.3L52.9,136.3z M46.7,135.6v-0.2V131l-3.5,1.4
			c-0.7,0.3-1.3,0.6-1.7,1c-0.4,0.4-0.6,0.9-0.6,1.5c0,0.7,0.2,1.2,0.6,1.6c0.4,0.4,1,0.6,1.6,0.6c0.6,0,1.2-0.2,1.9-0.6L46.7,135.6
			z"/>
		<path class="st0 draw" d="M68.3,122.9c1,0.6,1.8,1.4,2.4,2.6c0.6,1.1,0.9,2.5,0.9,4.2c0,2-0.4,3.7-1.3,5.1c-0.9,1.4-2,2.5-3.4,3.2
			c-1.4,0.7-2.9,1.1-4.4,1.1c-2.1,0-4-0.6-5.7-1.8l-3.3,1.5h-0.1c-0.1,0-0.2,0-0.2-0.1c0-0.1,0-0.2,0.1-0.3c0.8-0.6,1.4-1.1,1.8-1.7
			c0.4-0.6,0.5-1.4,0.5-2.4v-20.4c0-1-0.1-1.7-0.3-2.1c-0.2-0.4-0.5-0.6-1-0.6s-1.1,0.2-1.9,0.5h0c-0.1,0-0.2-0.1-0.2-0.2
			c-0.1-0.2,0-0.2,0.1-0.3l5.3-2.6l0.2,0c0.1,0,0.2,0,0.3,0.1c0.1,0.1,0.1,0.2,0.1,0.2v16.6c1-1,2-1.8,3.1-2.5c1-0.6,2.2-1,3.5-1
			C66.2,122,67.3,122.3,68.3,122.9z M67.4,136.4c0.9-1.2,1.3-3,1.3-5.3c0-2.5-0.5-4.3-1.4-5.6c-1-1.3-2.2-1.9-3.7-1.9
			c-1.7,0-3.4,0.9-5.1,2.6v6.7c0,1.2,0.3,2.3,0.9,3.1c0.6,0.8,1.3,1.4,2.1,1.8c0.8,0.4,1.6,0.6,2.4,0.6
			C65.3,138.3,66.5,137.7,67.4,136.4z"/>
		<path class="st0 draw" d="M74.1,138.3c0-0.2,0-0.2,0.1-0.2c1,0,1.7-0.2,2-0.6c0.3-0.4,0.5-1.1,0.5-2.3v-7.7c0-1-0.1-1.7-0.3-2.1
			c-0.2-0.4-0.5-0.7-1-0.7c-0.5,0-1.1,0.2-1.8,0.6h0c-0.1,0-0.2-0.1-0.2-0.2c-0.1-0.1,0-0.2,0.1-0.3l5.5-2.6l0.2,0
			c0.1,0,0.2,0,0.3,0.1c0.1,0.1,0.1,0.2,0.1,0.2c0,0.2,0,0.7,0,1.7s0,2,0,3.2v7.7c0,0.8,0.1,1.4,0.2,1.8c0.1,0.4,0.4,0.7,0.7,0.8
			c0.4,0.2,0.9,0.2,1.6,0.2c0.1,0,0.1,0.1,0.1,0.2c0,0.2,0,0.2-0.1,0.2c-0.7,0-1.2,0-1.6,0l-2.2,0l-2.3,0c-0.4,0-0.9,0-1.5,0
			C74.1,138.6,74.1,138.5,74.1,138.3z M76.4,117c-0.3-0.3-0.5-0.8-0.5-1.4c0-0.6,0.2-1,0.5-1.3c0.3-0.3,0.8-0.5,1.4-0.5
			c0.6,0,1,0.2,1.4,0.5c0.3,0.3,0.5,0.8,0.5,1.3c0,0.6-0.2,1.1-0.5,1.4c-0.3,0.3-0.8,0.5-1.4,0.5C77.2,117.5,76.7,117.3,76.4,117z"
			/>
		<path class="st0 draw" d="M103,138.3c0,0.2,0,0.2-0.1,0.2c-0.7,0-1.2,0-1.6,0l-2.2,0l-2.2,0c-0.4,0-0.9,0-1.6,0c-0.1,0-0.1-0.1-0.1-0.2
			c0-0.2,0-0.2,0.1-0.2c0.7,0,1.2-0.1,1.6-0.2c0.3-0.2,0.6-0.4,0.7-0.8c0.1-0.4,0.2-1,0.2-1.8v-6.6c0-1.6-0.3-2.8-0.9-3.5
			c-0.6-0.8-1.5-1.1-2.8-1.1c-0.8,0-1.6,0.2-2.5,0.6c-0.8,0.4-1.6,1-2.3,1.7v8.9c0,0.8,0.1,1.4,0.2,1.8s0.4,0.7,0.7,0.8
			c0.4,0.2,0.9,0.2,1.6,0.2c0.1,0,0.1,0.1,0.1,0.2c0,0.2,0,0.2-0.1,0.2c-0.7,0-1.2,0-1.6,0l-2.2,0l-2.2,0c-0.4,0-0.9,0-1.6,0
			c-0.1,0-0.1-0.1-0.1-0.2c0-0.2,0-0.2,0.1-0.2c0.7,0,1.2-0.1,1.6-0.2c0.3-0.2,0.6-0.4,0.7-0.8c0.1-0.4,0.2-1,0.2-1.8v-8.1
			c0-0.9-0.1-1.6-0.3-2c-0.2-0.4-0.6-0.6-1.1-0.6c-0.4,0-1.1,0.2-2.2,0.6h0c-0.1,0-0.2-0.1-0.2-0.2c-0.1-0.1,0-0.2,0.1-0.3l5-2.4
			l0.2,0c0.3,0,0.5,0.3,0.8,0.9c0.3,0.6,0.4,1.4,0.4,2.5c2-2.4,4.1-3.6,6.3-3.6c1.5,0,2.7,0.4,3.5,1.3c0.8,0.9,1.3,2.1,1.3,3.8v8.1
			c0,0.8,0.1,1.4,0.2,1.8c0.1,0.4,0.4,0.7,0.7,0.8c0.4,0.2,0.9,0.2,1.6,0.2C103,138.1,103,138.1,103,138.3z"/>
		<path class="st0 draw" d="M117.8,136.1c0.1,0,0.2,0,0.2,0.1c0.1,0.1,0.1,0.2,0,0.3c-1.8,1.7-3.9,2.5-6.1,2.5c-1.6,0-3-0.4-4.2-1.1
			c-1.2-0.7-2-1.7-2.6-2.9c-0.6-1.2-0.9-2.5-0.9-4c0-1.6,0.4-3.1,1.2-4.5c0.8-1.4,1.9-2.4,3.2-3.2c1.4-0.8,2.8-1.2,4.5-1.2
			c1.6,0,2.8,0.4,3.7,1.2c0.8,0.8,1.3,2,1.3,3.5c0,0.7-0.2,1.1-0.5,1.1l-10.2,0c-0.1,0.6-0.1,1.1-0.1,1.4c0,2.4,0.6,4.3,1.7,5.8
			c1.1,1.5,2.7,2.2,4.8,2.2c0.8,0,1.5-0.1,2.1-0.3C116.3,137,117,136.6,117.8,136.1L117.8,136.1z M108.8,124.2
			c-0.7,0.8-1.2,1.9-1.4,3.3l7.5-0.2c0-1.4-0.3-2.5-0.8-3.2c-0.6-0.7-1.4-1.1-2.4-1.1C110.5,123,109.5,123.4,108.8,124.2z"/>
		<path class="st0 draw" d="M131.6,136.3c0.1,0,0.2,0.1,0.2,0.2c0.1,0.1,0,0.2,0,0.3c-1,0.8-1.9,1.4-2.8,1.8c-0.8,0.4-1.7,0.5-2.6,0.5
			c-1.2,0-2.1-0.3-2.9-0.8c-0.8-0.5-1.1-1.4-1.1-2.7v-9.6c0-0.7-0.1-1.2-0.2-1.5c-0.1-0.3-0.3-0.5-0.6-0.6c-0.3-0.1-0.8-0.2-1.4-0.2
			c-0.1,0-0.1-0.1-0.1-0.3c0-0.2,0-0.3,0.1-0.3c1.2,0,2.1-0.3,2.8-0.9c0.7-0.6,1.2-1.3,1.3-2.3c0-0.1,0.1-0.1,0.3-0.1s0.3,0,0.3,0.1
			v3.1c1.3,0,3.2-0.2,5.7-0.4c0.1,0,0.2,0.1,0.2,0.3c0.1,0.2,0.1,0.4,0.1,0.7c0,0.2,0,0.5-0.1,0.7c-0.1,0.2-0.2,0.3-0.3,0.3
			c-1.5-0.4-3.4-0.6-5.5-0.6v10.2c0,2.2,1.1,3.3,3.2,3.3C129.4,137.5,130.5,137.1,131.6,136.3L131.6,136.3z"/>
		<path class="st0 draw" d="M150.1,138.6c-0.4,0-0.9-0.1-1.5-0.1c-0.6,0-1.2,0-2,0l-2.9,0c-0.5,0-1.2,0-2.1,0c-0.1,0-0.1-0.1-0.1-0.2
			c0-0.2,0-0.2,0.1-0.2c1,0,1.8-0.1,2.2-0.2c0.5-0.1,0.8-0.4,1-0.8c0.2-0.4,0.3-1,0.3-1.8V116c0-0.8-0.1-1.4-0.2-1.8
			c-0.2-0.4-0.5-0.7-1-0.8c-0.5-0.2-1.2-0.2-2.2-0.2c-0.1,0-0.1-0.1-0.1-0.2c0-0.2,0-0.2,0.1-0.2l2.1,0c1.2,0.1,2.2,0.1,2.9,0.1
			c1,0,2.1,0,3.1-0.1c1.3-0.1,2.2-0.1,2.6-0.1c2.9,0,5.4,0.6,7.6,1.7c2.2,1.1,3.9,2.6,5.1,4.5s1.8,4,1.8,6.4c0,2.7-0.6,5-1.9,7.1
			c-1.3,2.1-3,3.6-5.1,4.8c-2.1,1.1-4.5,1.7-7,1.7C152.1,138.7,151.2,138.7,150.1,138.6z M158.2,136.7c1.6-0.9,2.9-2.3,3.9-4.1
			c0.9-1.8,1.4-4,1.4-6.5c0-2.4-0.4-4.6-1.3-6.5c-0.9-1.9-2.1-3.5-3.7-4.6c-1.6-1.1-3.5-1.7-5.6-1.7c-1.2,0-2.1,0.1-2.7,0.2
			c-0.6,0.1-1.1,0.4-1.4,0.8c-0.3,0.4-0.5,1-0.5,1.8v18.6c0,1.2,0.3,2.1,0.9,2.6c0.6,0.5,1.8,0.7,3.5,0.7
			C154.7,138.1,156.6,137.6,158.2,136.7z"/>
		<path class="st0 draw" d="M182.9,136.1c0.1,0,0.2,0,0.2,0.1c0.1,0.1,0.1,0.2,0,0.3c-1.8,1.7-3.9,2.5-6.1,2.5c-1.6,0-3-0.4-4.2-1.1
			c-1.2-0.7-2-1.7-2.6-2.9c-0.6-1.2-0.9-2.5-0.9-4c0-1.6,0.4-3.1,1.2-4.5c0.8-1.4,1.9-2.4,3.2-3.2c1.4-0.8,2.8-1.2,4.5-1.2
			c1.6,0,2.8,0.4,3.7,1.2c0.8,0.8,1.3,2,1.3,3.5c0,0.7-0.2,1.1-0.5,1.1l-10.2,0c-0.1,0.6-0.1,1.1-0.1,1.4c0,2.4,0.6,4.3,1.7,5.8
			c1.1,1.5,2.7,2.2,4.8,2.2c0.8,0,1.5-0.1,2.1-0.3C181.5,137,182.1,136.6,182.9,136.1L182.9,136.1z M173.9,124.2
			c-0.7,0.8-1.2,1.9-1.4,3.3l7.5-0.2c0-1.4-0.3-2.5-0.8-3.2c-0.6-0.7-1.4-1.1-2.4-1.1C175.6,123,174.7,123.4,173.9,124.2z"/>
		<path class="st0 draw" d="M204.5,138.3c0,0.2,0,0.2-0.1,0.2c-0.7,0-1.2,0-1.6,0l-2.2,0l-2.2,0c-0.4,0-0.9,0-1.6,0
			c-0.1,0-0.1-0.1-0.1-0.2c0-0.2,0-0.2,0.1-0.2c0.7,0,1.2-0.1,1.6-0.2c0.3-0.2,0.6-0.4,0.7-0.8c0.1-0.4,0.2-1,0.2-1.8v-6.6
			c0-1.6-0.3-2.8-0.9-3.5c-0.6-0.8-1.5-1.1-2.8-1.1c-0.8,0-1.6,0.2-2.5,0.6c-0.8,0.4-1.6,1-2.3,1.7v8.9c0,0.8,0.1,1.4,0.2,1.8
			s0.4,0.7,0.7,0.8c0.4,0.2,0.9,0.2,1.6,0.2c0.1,0,0.1,0.1,0.1,0.2c0,0.2,0,0.2-0.1,0.2c-0.7,0-1.2,0-1.6,0l-2.2,0l-2.2,0
			c-0.4,0-0.9,0-1.6,0c-0.1,0-0.1-0.1-0.1-0.2c0-0.2,0-0.2,0.1-0.2c0.7,0,1.2-0.1,1.6-0.2c0.3-0.2,0.6-0.4,0.7-0.8
			c0.1-0.4,0.2-1,0.2-1.8v-8.1c0-0.9-0.1-1.6-0.3-2c-0.2-0.4-0.6-0.6-1.1-0.6c-0.4,0-1.1,0.2-2.2,0.6h0c-0.1,0-0.2-0.1-0.2-0.2
			c-0.1-0.1,0-0.2,0.1-0.3l5-2.4l0.2,0c0.3,0,0.5,0.3,0.8,0.9c0.3,0.6,0.4,1.4,0.4,2.5c2-2.4,4.1-3.6,6.3-3.6c1.5,0,2.7,0.4,3.5,1.3
			c0.8,0.9,1.3,2.1,1.3,3.8v8.1c0,0.8,0.1,1.4,0.2,1.8c0.1,0.4,0.4,0.7,0.7,0.8c0.4,0.2,0.9,0.2,1.6,0.2
			C204.5,138.1,204.5,138.1,204.5,138.3z"/>
		<path class="st0 draw" d="M217.2,136.3c0.1,0,0.2,0.1,0.2,0.2c0.1,0.1,0,0.2,0,0.3c-1,0.8-1.9,1.4-2.8,1.8c-0.8,0.4-1.7,0.5-2.6,0.5
			c-1.2,0-2.1-0.3-2.9-0.8c-0.8-0.5-1.1-1.4-1.1-2.7v-9.6c0-0.7-0.1-1.2-0.2-1.5c-0.1-0.3-0.3-0.5-0.6-0.6c-0.3-0.1-0.8-0.2-1.4-0.2
			c-0.1,0-0.1-0.1-0.1-0.3c0-0.2,0-0.3,0.1-0.3c1.2,0,2.1-0.3,2.8-0.9c0.7-0.6,1.2-1.3,1.3-2.3c0-0.1,0.1-0.1,0.3-0.1
			c0.2,0,0.3,0,0.3,0.1v3.1c1.3,0,3.2-0.2,5.7-0.4c0.1,0,0.2,0.1,0.2,0.3c0.1,0.2,0.1,0.4,0.1,0.7c0,0.2,0,0.5-0.1,0.7
			c-0.1,0.2-0.2,0.3-0.3,0.3c-1.5-0.4-3.4-0.6-5.5-0.6v10.2c0,2.2,1.1,3.3,3.2,3.3C215,137.5,216.1,137.1,217.2,136.3L217.2,136.3z"
			/>
		<path class="st0 draw" d="M234.4,136.3c0.1,0,0.2,0.1,0.2,0.2c0,0.1,0,0.2-0.1,0.3l-4.3,2c-0.1,0.1-0.2,0.1-0.4,0.1
			c-0.4,0-0.7-0.2-1-0.7c-0.3-0.5-0.5-1.1-0.6-2l-2.1,1.4c-0.7,0.5-1.3,0.8-1.8,1c-0.5,0.2-1.1,0.3-1.7,0.3c-1,0-1.9-0.3-2.4-0.8
			c-0.6-0.5-0.9-1.2-0.9-2c0-0.9,0.4-1.6,1.1-2.2c0.7-0.6,1.8-1.2,3.4-1.8l4.4-1.6v-2.7c0-1.7-0.2-2.9-0.6-3.6
			c-0.4-0.7-1.1-1.1-1.9-1.1c-0.9,0-1.6,0.3-2.1,1c-0.5,0.6-0.8,1.4-0.9,2.2c-0.2,1.2-0.7,1.8-1.7,1.8c-0.5,0-0.9-0.1-1.1-0.4
			c-0.2-0.2-0.4-0.6-0.4-0.9c0-0.7,0.4-1.4,1.3-2.1c0.9-0.7,1.9-1.3,3.1-1.7c1.2-0.4,2.3-0.7,3.3-0.7c1.1,0,2,0.4,2.6,1.1
			c0.6,0.7,0.9,1.8,0.9,3.2v7.7c0,0.9,0.1,1.6,0.4,2.1c0.3,0.4,0.7,0.7,1.2,0.7C232.9,136.8,233.5,136.6,234.4,136.3L234.4,136.3z
			 M228.2,135.6v-0.2V131l-3.5,1.4c-0.7,0.3-1.3,0.6-1.7,1c-0.4,0.4-0.6,0.9-0.6,1.5c0,0.7,0.2,1.2,0.6,1.6c0.4,0.4,1,0.6,1.6,0.6
			c0.6,0,1.2-0.2,1.9-0.6L228.2,135.6z"/>
		<path class="st0 draw" d="M235.5,138.3c0-0.2,0-0.2,0.1-0.2c1,0,1.7-0.2,2-0.6c0.3-0.4,0.5-1.1,0.5-2.3v-7.7c0-1-0.1-1.7-0.3-2.1
			c-0.2-0.4-0.5-0.7-1-0.7c-0.5,0-1.1,0.2-1.8,0.6h0c-0.1,0-0.2-0.1-0.2-0.2c-0.1-0.1,0-0.2,0.1-0.3l5.5-2.6l0.2,0
			c0.1,0,0.2,0,0.3,0.1c0.1,0.1,0.1,0.2,0.1,0.2c0,0.2,0,0.7,0,1.7c0,0.9,0,2,0,3.2v7.7c0,0.8,0.1,1.4,0.2,1.8
			c0.1,0.4,0.4,0.7,0.7,0.8c0.4,0.2,0.9,0.2,1.6,0.2c0.1,0,0.1,0.1,0.1,0.2c0,0.2,0,0.2-0.1,0.2c-0.7,0-1.2,0-1.6,0l-2.2,0l-2.3,0
			c-0.4,0-0.9,0-1.5,0C235.6,138.6,235.5,138.5,235.5,138.3z M237.8,117c-0.3-0.3-0.5-0.8-0.5-1.4c0-0.6,0.2-1,0.5-1.3
			c0.3-0.3,0.8-0.5,1.4-0.5c0.6,0,1,0.2,1.4,0.5c0.3,0.3,0.5,0.8,0.5,1.3c0,0.6-0.2,1.1-0.5,1.4c-0.3,0.3-0.8,0.5-1.4,0.5
			C238.6,117.5,238.1,117.3,237.8,117z"/>
		<path class="st0 draw" d="M257,122.7c0.6,0.4,0.8,0.8,0.8,1.3c0,0.4-0.1,0.7-0.4,1s-0.6,0.4-1.1,0.4c-0.3,0-0.5-0.1-0.7-0.2
			c-0.2-0.1-0.4-0.3-0.7-0.5c-0.3-0.2-0.5-0.4-0.7-0.5c-0.2-0.1-0.5-0.2-0.8-0.2c-0.4,0-0.7,0.1-1.1,0.4c-0.4,0.3-1,0.9-1.8,1.8v8.9
			c0,0.8,0.1,1.4,0.3,1.8c0.2,0.4,0.6,0.7,1.1,0.8c0.6,0.2,1.4,0.2,2.5,0.2c0.1,0,0.1,0.1,0.1,0.2c0,0.2,0,0.2-0.1,0.2
			c-0.9,0-1.6,0-2.2,0l-3.1,0l-2.2,0c-0.4,0-0.9,0-1.6,0c-0.1,0-0.1-0.1-0.1-0.2c0-0.2,0-0.2,0.1-0.2c0.7,0,1.2-0.1,1.6-0.2
			c0.3-0.2,0.6-0.4,0.7-0.8c0.1-0.4,0.2-1,0.2-1.8v-8.1c0-0.9-0.1-1.6-0.3-2c-0.2-0.4-0.6-0.6-1.1-0.6c-0.4,0-1.1,0.2-2.2,0.6h0
			c-0.1,0-0.2-0.1-0.2-0.2c-0.1-0.1,0-0.2,0.1-0.3l5-2.4l0.2,0c0.3,0,0.5,0.3,0.8,0.9c0.3,0.6,0.4,1.4,0.4,2.4
			c1.1-1.3,2-2.2,2.7-2.6s1.3-0.7,1.9-0.7C255.9,122.2,256.5,122.4,257,122.7z"/>
		<path class="st0 draw" d="M272.5,136.1c0.1,0,0.2,0,0.2,0.1c0.1,0.1,0.1,0.2,0,0.3c-1.8,1.7-3.9,2.5-6.1,2.5c-1.6,0-3-0.4-4.2-1.1
			c-1.2-0.7-2-1.7-2.7-2.9c-0.6-1.2-0.9-2.5-0.9-4c0-1.6,0.4-3.1,1.2-4.5c0.8-1.4,1.9-2.4,3.2-3.2c1.4-0.8,2.8-1.2,4.5-1.2
			c1.6,0,2.8,0.4,3.7,1.2c0.8,0.8,1.3,2,1.3,3.5c0,0.7-0.2,1.1-0.5,1.1l-10.2,0c-0.1,0.6-0.1,1.1-0.1,1.4c0,2.4,0.6,4.3,1.7,5.8
			c1.1,1.5,2.7,2.2,4.8,2.2c0.8,0,1.5-0.1,2.1-0.3S271.6,136.6,272.5,136.1L272.5,136.1z M263.4,124.2c-0.7,0.8-1.2,1.9-1.4,3.3
			l7.5-0.2c0-1.4-0.3-2.5-0.8-3.2c-0.6-0.7-1.4-1.1-2.4-1.1C265.1,123,264.2,123.4,263.4,124.2z"/>
		
			<rect x="150.6" y="113" transform="matrix(0.9772 -0.2123 0.2123 0.9772 -23.2764 34.9617)" class="st0 draw" width="1" height="25.8"/>
		<rect x="18" y="115.3" transform="matrix(0.9772 -0.2123 0.2123 0.9772 -26.5403 6.8152)" class="st0 draw" width="1" height="23.5"/>
	</g>
	<g id="logoSubText">
		<path class="st0 draw" d="M51.3,158.1c0-2.6,1.5-4.6,4-4.6c1.5,0,2.8,0.7,3.4,2.1v-6.3h0.8v13.2h-0.7l-0.1-2c-0.7,1.5-1.9,2.2-3.4,2.2
			C52.8,162.6,51.3,160.6,51.3,158.1z M58.7,158.1c0-2.2-1.2-3.8-3.3-3.8c-2.1,0-3.3,1.6-3.3,3.8c0,2.2,1.2,3.8,3.3,3.8
			C57.6,161.9,58.7,160.3,58.7,158.1z"/>
		<path class="st0 draw" d="M61.7,158.1c0-2.7,1.7-4.6,4.1-4.6c2.3,0,3.8,1.6,3.8,4v0.6h-7.1c0.1,2.4,1.3,3.8,3.4,3.8
			c1.5,0,2.5-0.7,2.9-2h0.9c-0.5,1.8-1.8,2.7-3.7,2.7C63.4,162.6,61.7,160.8,61.7,158.1z M62.6,157.4h6.2c0-1.9-1.2-3.2-3-3.2
			C64,154.2,62.8,155.5,62.6,157.4z"/>
		<path class="st0 draw" d="M76.9,162.4v-13.2h0.8v13.2H76.9z"/>
		<path class="st0 draw" d="M80.1,160.1c0-1.6,1.2-2.6,3.3-2.8l3-0.2v-0.3c0-2-1.2-2.5-2.6-2.5c-1.6,0-2.6,0.8-2.6,2h-0.8
			c0-1.7,1.4-2.8,3.4-2.8c1.9,0,3.4,0.9,3.4,3.2v5.8h-0.7l-0.2-1.6c-0.6,1.2-1.8,1.9-3.3,1.9C81.2,162.6,80.1,161.6,80.1,160.1z
			 M86.4,158.3v-0.5l-2.9,0.2c-1.8,0.1-2.5,1-2.5,2.1c0,1.2,0.9,1.8,2.2,1.8C85.3,161.9,86.4,160.4,86.4,158.3z"/>
		<path class="st0 draw" d="M94.5,156c0-4,2.5-6.7,6.1-6.7c2.6,0,4.8,1.6,5.4,4.1h-1c-0.6-2-2.3-3.3-4.4-3.3c-3,0-5.1,2.4-5.1,5.8
			c0,3.5,2.1,5.8,5.1,5.8c2.2,0,3.9-1.2,4.5-3.1h1c-0.6,2.3-2.8,3.9-5.5,3.9C96.9,162.6,94.5,159.9,94.5,156z"/>
		<path class="st0 draw" d="M111.8,153.5c2.5,0,4.3,1.9,4.3,4.6c0,2.6-1.8,4.6-4.3,4.6c-2.5,0-4.3-1.9-4.3-4.6
			C107.4,155.4,109.3,153.5,111.8,153.5z M111.8,161.9c2,0,3.5-1.6,3.5-3.8c0-2.2-1.4-3.8-3.5-3.8c-2,0-3.5,1.6-3.5,3.8
			C108.3,160.3,109.7,161.9,111.8,161.9z M109.8,152.7l1.3-1.9h1.3l1.3,1.9h-0.9l-1-1.5l-1.1,1.5H109.8z"/>
		<path class="st0 draw" d="M118.9,162.4v-8h-1.8v-0.7h1.8v-2.8h0.8v2.8h1.8v0.7h-1.8v8H118.9z"/>
		<path class="st0 draw" d="M122.5,158.1c0-2.7,1.7-4.6,4.1-4.6c2.3,0,3.8,1.6,3.8,4v0.6h-7.1c0.1,2.4,1.3,3.8,3.4,3.8
			c1.5,0,2.5-0.7,2.9-2h0.9c-0.5,1.8-1.8,2.7-3.7,2.7C124.1,162.6,122.5,160.8,122.5,158.1z M123.3,157.4h6.2c0-1.9-1.2-3.2-3-3.2
			C124.8,154.2,123.5,155.5,123.3,157.4z"/>
		<path class="st0 draw" d="M137.1,156c0-4,2.5-6.7,6.1-6.7c2.6,0,4.8,1.6,5.4,4.1h-1c-0.6-2-2.3-3.3-4.4-3.3c-3,0-5.1,2.4-5.1,5.8
			c0,3.5,2.1,5.8,5.1,5.8c2.2,0,3.9-1.2,4.5-3.1h1c-0.6,2.3-2.8,3.9-5.5,3.9C139.5,162.6,137.1,159.9,137.1,156z"/>
		<path class="st0 draw" d="M150.6,162.4v-13.1h0.8v6.1c0.6-1.1,1.7-1.9,3.2-1.9c2.4,0,3.3,1.5,3.3,3.6v5.3h-0.8v-5.2c0-2.3-1-3-2.5-3
			c-2.1,0-3.2,1.6-3.2,3.4v4.7H150.6z"/>
		<path class="st0 draw" d="M160.1,160.1c0-1.6,1.2-2.6,3.3-2.8l3-0.2v-0.3c0-2-1.2-2.5-2.6-2.5c-1.6,0-2.6,0.8-2.6,2h-0.8
			c0-1.7,1.4-2.8,3.4-2.8c1.9,0,3.4,0.9,3.4,3.2v5.8h-0.7l-0.2-1.6c-0.6,1.2-1.8,1.9-3.3,1.9C161.2,162.6,160.1,161.6,160.1,160.1z
			 M166.4,158.3v-0.5l-2.9,0.2c-1.8,0.1-2.5,1-2.5,2.1c0,1.2,0.9,1.8,2.2,1.8C165.2,161.9,166.4,160.4,166.4,158.3z"/>
		<path class="st0 draw" d="M170,162.4v-13.2h0.8v13.2H170z"/>
		<path class="st0 draw" d="M177.3,153.5c2.5,0,4.3,1.9,4.3,4.6c0,2.6-1.8,4.6-4.3,4.6c-2.5,0-4.3-1.9-4.3-4.6
			C173,155.4,174.8,153.5,177.3,153.5z M177.3,161.9c2,0,3.5-1.6,3.5-3.8c0-2.2-1.4-3.8-3.5-3.8c-2,0-3.5,1.6-3.5,3.8
			C173.9,160.3,175.3,161.9,177.3,161.9z"/>
		<path class="st0 draw" d="M183.8,162.4v-8.7h0.7l0.2,1.7c0.6-1.2,1.8-1.9,3.1-1.9c2.5,0,3.4,1.5,3.4,3.6v5.3h-0.8v-5.2c0-2.3-1-3-2.6-3
			c-2,0-3.1,1.5-3.1,3.7v4.5H183.8z"/>
		<path class="st0 draw" d="M193.8,162.4v-8.7h0.7l0.2,1.7c0.6-1.2,1.8-1.9,3.1-1.9c2.5,0,3.4,1.5,3.4,3.6v5.3h-0.8v-5.2c0-2.3-1-3-2.6-3
			c-2,0-3.1,1.5-3.1,3.7v4.5H193.8z"/>
		<path class="st0 draw" d="M203.3,160.1c0-1.6,1.2-2.6,3.3-2.8l3-0.2v-0.3c0-2-1.2-2.5-2.6-2.5c-1.6,0-2.6,0.8-2.6,2h-0.8
			c0-1.7,1.4-2.8,3.4-2.8c1.9,0,3.4,0.9,3.4,3.2v5.8h-0.7l-0.2-1.6c-0.6,1.2-1.8,1.9-3.3,1.9C204.4,162.6,203.3,161.6,203.3,160.1z
			 M209.6,158.3v-0.5l-2.9,0.2c-1.8,0.1-2.5,1-2.5,2.1c0,1.2,0.9,1.8,2.2,1.8C208.5,161.9,209.6,160.4,209.6,158.3z"/>
		<path class="st0 draw" d="M212.8,150.3c0-0.4,0.3-0.8,0.8-0.8c0.4,0,0.8,0.4,0.8,0.8c0,0.4-0.4,0.7-0.8,0.7
			C213.1,151,212.8,150.7,212.8,150.3z M213.1,153.7h0.8v8.7h-0.8V153.7z"/>
		<path class="st0 draw" d="M216.8,160.1c0,1.1,0.8,1.8,2.2,1.8c1.5,0,2.4-0.7,2.4-1.7c0-0.9-0.4-1.3-1.5-1.6l-1.5-0.4
			c-1.5-0.4-2.2-1.2-2.2-2.3c0-1.5,1.2-2.4,3-2.4s2.9,1,3,2.6h-0.8c-0.1-1.1-0.9-1.8-2.2-1.8c-1.4,0-2.2,0.6-2.2,1.7
			c0,0.7,0.5,1.3,1.6,1.5l1.5,0.4c1.5,0.4,2.2,1.1,2.2,2.3c0,1.5-1.3,2.5-3.2,2.5c-1.9,0-3-1-3-2.6H216.8z"/>
		<path class="st0 draw" d="M223.8,158.1c0-2.7,1.7-4.6,4.1-4.6c2.3,0,3.8,1.6,3.8,4v0.6h-7.1c0.1,2.4,1.3,3.8,3.4,3.8
			c1.5,0,2.5-0.7,2.9-2h0.9c-0.5,1.8-1.8,2.7-3.7,2.7C225.4,162.6,223.8,160.8,223.8,158.1z M224.6,157.4h6.2c0-1.9-1.2-3.2-3-3.2
			C226.1,154.2,224.8,155.5,224.6,157.4z"/>
	</g>
	<g id="logoMark">
		<g>
			<rect x="127.7" y="64.7" class="st0 draw" width="11.8" height="14.2"/>
			<path class="st0 draw" d="M167.4,5.8h-18.1h-2h-7.9h-1.8h-20.2v8.3v2.1v18.2v2v9l-3.2,1.6l0.1,1.9l0.1,2l19.3-9.9l19.5,9.9v31.2h1.8
				h1.8v-5.8c1.1-0.7,2.1-1.4,3.1-2.2c1-0.8,1.9-1.6,2.7-2.6c1.1-1.2,2.1-2.6,3-4c0.4-0.7,0.8-1.4,1.2-2.2c0.4-0.8,0.7-1.5,1-2.3
				c1-2.8,1.6-5.8,1.6-8.9v-3.3v-2.1v-7.4v-3.3V6.8v-1H167.4z M163.1,8.3l-9.1,5.2l-3.2-5.2H163.1z M148.8,8.3l3.7,6l-10.1,5.8
				l-2.5-11.8H148.8z M143.1,31.3l-7.7-5.2l5.9-3.4L143.1,31.3z M119.9,8.3h18.2l2.7,12.7l-7.1,4.1l-13.9-9.3V8.3z M119.9,17.8
				l12.2,8.2l-12.2,7V17.8z M133.6,37.1l-13.7,7v-9.1l13.8-7.9l9.9,6.7l2,9.4L133.6,37.1z M166.7,54.2c0,7.9-4,15-10,19.2V48.8
				l-9-4.6l-1.9-9.1l21,14.1V54.2z M166.7,47.2l-21.5-14.5l-2.3-10.9l10.6-6.1l13.3,21.6V47.2z M166.7,34.1l-11.8-19.2l11.7-6.7h0.1
				V34.1z"/>
		</g>
		<path class="st0 draw" d="M133.6,93.7c-12.1,0-18.1-9.2-18.2-9.3l1.2-0.8c0.3,0.5,7.3,11.1,22,8.1l0.3,1.4
			C137,93.6,135.2,93.7,133.6,93.7z"/>
	</g>
</g>
</svg>
