<?xml version="1.0" encoding="UTF-8"?>
<!DOCTYPE svg PUBLIC "-//W3C//DTD SVG 1.1//EN" "http://www.w3.org/Graphics/SVG/1.1/DTD/svg11.dtd">
<svg id="svgTooth" xmlns="http://www.w3.org/2000/svg" version="1.1" width="1024px" height="1024px" style="shape-rendering:geometricPrecision; text-rendering:geometricPrecision; image-rendering:optimizeQuality; fill-rule:evenodd; clip-rule:evenodd" xmlns:xlink="http://www.w3.org/1999/xlink">
<g><path style="opacity:1" fill="#CBAE70" d="M 932.5,50.5 C 932.826,47.9986 934.159,46.8319 936.5,47C 935.295,48.3756 933.962,49.5423 932.5,50.5 Z"/></g>
<g><path style="opacity:1" fill="#CBAE70" d="M 932.5,50.5 C 930.312,54.2071 927.645,57.5405 924.5,60.5C 926.208,56.4281 928.874,53.0948 932.5,50.5 Z"/></g>
<g><path style="opacity:1" fill="#CBAE70" d="M 924.5,60.5 C 900.877,99.9742 871.21,134.474 835.5,164C 826.796,170.876 817.463,176.709 807.5,181.5C 842.334,159.452 872.167,131.786 897,98.5C 905.943,85.5893 915.11,72.9226 924.5,60.5 Z"/></g>
<g><path style="opacity:1" fill="#CBAE70" d="M 807.5,181.5 C 806.713,183.104 805.38,183.771 803.5,183.5C 804.287,181.896 805.62,181.229 807.5,181.5 Z"/></g>
<g><path style="opacity:1" fill="#CBAE70" d="M 803.5,183.5 C 787.703,192.378 770.703,198.212 752.5,201C 744.866,202.246 737.199,203.246 729.5,204C 712.837,204.5 696.17,204.667 679.5,204.5C 680.209,203.596 681.209,203.263 682.5,203.5C 724.587,206.537 764.921,199.87 803.5,183.5 Z"/></g>
<g><path style="opacity:1" fill="#CBAE70" d="M 674.5,202.5 C 677.385,202.194 680.052,202.527 682.5,203.5C 681.209,203.263 680.209,203.596 679.5,204.5C 676.615,204.806 673.948,204.473 671.5,203.5C 672.791,203.737 673.791,203.404 674.5,202.5 Z"/></g>
<g><path style="opacity:1" fill="#CBAE70" d="M 674.5,202.5 C 673.791,203.404 672.791,203.737 671.5,203.5C 634.619,201.411 598.952,206.911 564.5,220C 550.126,226.846 536.46,234.679 523.5,243.5C 543.659,226.754 566.659,215.254 592.5,209C 619.51,203.054 646.843,200.887 674.5,202.5 Z"/></g>
<g><path style="opacity:1" fill="#CBAE70" d="M 523.5,243.5 C 498.535,264.308 480.368,289.974 469,320.5C 463.515,344.295 454.515,366.629 442,387.5C 432.453,401.217 420.287,411.884 405.5,419.5C 409.853,428.157 411.52,437.324 410.5,447C 410.242,462.956 407.409,478.456 402,493.5C 393.552,511.178 386.885,529.511 382,548.5C 380.115,574.929 374.781,600.596 366,625.5C 361.781,635.448 355.948,644.281 348.5,652C 345.93,654.459 342.93,655.459 339.5,655C 344.412,653.292 348.579,650.458 352,646.5C 361.941,633.032 368.607,618.032 372,601.5C 375.76,580.177 379.427,558.843 383,537.5C 387.55,523.848 392.884,510.515 399,497.5C 406.709,477.872 410.042,457.539 409,436.5C 408.313,432.42 407.313,428.42 406,424.5C 405.303,422.416 404.136,420.749 402.5,419.5C 381.221,429.431 358.887,432.264 335.5,428C 323.514,424.677 311.514,421.344 299.5,418C 288.072,412.746 276.406,408.079 264.5,404C 237.594,397.899 221.427,408.399 216,435.5C 214.991,448.924 215.658,462.257 218,475.5C 224.477,496.79 231.81,517.79 240,538.5C 242.666,557.155 245.333,575.822 248,594.5C 250.689,612.233 256.355,628.9 265,644.5C 268.143,648.487 271.976,651.487 276.5,653.5C 278.778,653.219 279.945,651.885 280,649.5C 280.892,642.524 281.392,635.524 281.5,628.5C 282.482,631.962 282.815,635.629 282.5,639.5C 283.056,644.695 282.056,649.528 279.5,654C 275.191,655.198 271.524,654.198 268.5,651C 258.891,639.536 252.725,626.37 250,611.5C 248.016,603.566 246.35,595.566 245,587.5C 243.395,572.111 241.395,556.777 239,541.5C 232.625,523.078 225.958,504.745 219,486.5C 214.184,470.153 212.517,453.487 214,436.5C 219.331,408.821 235.831,397.321 263.5,402C 275.406,406.079 287.072,410.746 298.5,416C 303.193,417.173 307.86,418.34 312.5,419.5C 316.894,418.988 321.228,418.154 325.5,417C 336.231,412.801 346.564,407.801 356.5,402C 376.571,394.952 392.738,400.119 405,417.5C 426.883,406.282 442.55,389.282 452,366.5C 458.254,350.824 463.587,334.824 468,318.5C 479.517,288.175 498.017,263.175 523.5,243.5 Z"/></g>
<g><path style="opacity:1" fill="#CBAE70" d="M 402.5,419.5 C 387.599,424.547 372.266,427.547 356.5,428.5C 342.438,428.156 328.771,425.656 315.5,421C 321.285,419.738 326.952,418.072 332.5,416C 341.554,410.806 350.888,406.139 360.5,402C 375.468,397.923 388.302,401.423 399,412.5C 400.879,414.527 402.046,416.86 402.5,419.5 Z"/></g>
<g><path style="opacity:1" fill="#CBAE70" d="M 341.5,598.5 C 341.784,600.415 341.451,602.081 340.5,603.5C 339.871,586.383 336.038,570.05 329,554.5C 319.173,542.539 309.173,542.539 299,554.5C 296.139,558.888 293.806,563.554 292,568.5C 286.562,587.795 283.729,607.462 283.5,627.5C 282.517,623.702 282.183,619.702 282.5,615.5C 283.203,599.876 285.703,584.543 290,569.5C 293.169,557.964 300.003,549.464 310.5,544C 320.539,543.106 327.706,547.273 332,556.5C 337.953,569.861 341.12,583.861 341.5,598.5 Z"/></g>
<g><path style="opacity:1" fill="#CBAE70" d="M 341.5,598.5 C 342.658,608.325 342.825,618.325 342,628.5C 341.631,634.046 340.797,639.38 339.5,644.5C 339.672,643.508 339.338,642.842 338.5,642.5C 340.164,629.565 340.831,616.565 340.5,603.5C 341.451,602.081 341.784,600.415 341.5,598.5 Z"/></g>
<g><path style="opacity:1" fill="#CBAE70" d="M 282.5,615.5 C 282.183,619.702 282.517,623.702 283.5,627.5C 283.817,631.702 283.483,635.702 282.5,639.5C 282.815,635.629 282.482,631.962 281.5,628.5C 281.182,623.968 281.515,619.634 282.5,615.5 Z"/></g>
<g><path style="opacity:1" fill="#CBAE70" d="M 338.5,642.5 C 339.338,642.842 339.672,643.508 339.5,644.5C 332.645,677.864 316.312,705.697 290.5,728C 279.522,736.822 268.189,745.155 256.5,753C 234.833,765.498 213.5,778.498 192.5,792C 179.711,801.623 167.377,811.79 155.5,822.5C 166.348,810.828 178.348,800.328 191.5,791C 212.5,777.498 233.833,764.498 255.5,752C 282.528,735.973 304.695,714.806 322,688.5C 330.383,674.184 335.883,658.851 338.5,642.5 Z"/></g>
<g><path style="opacity:1" fill="#CBAE70" d="M 155.5,822.5 C 121.652,859.506 98.1516,902.506 85,951.5C 96.6415,902.879 119.308,860.212 153,823.5C 153.671,822.748 154.504,822.414 155.5,822.5 Z"/></g>
</svg>
