<svg id="visual" viewBox="0 0 900 600" width="900" height="600" xmlns="http://www.w3.org/2000/svg" xmlns:xlink="http://www.w3.org/1999/xlink" version="1.1"><rect x="0" y="0" width="900" height="600" fill="#001220"></rect><path d="M0 420L21.5 418.5C43 417 86 414 128.8 413.5C171.7 413 214.3 415 257.2 407.3C300 399.7 343 382.3 385.8 382C428.7 381.7 471.3 398.3 514.2 402.3C557 406.3 600 397.7 642.8 391C685.7 384.3 728.3 379.7 771.2 383C814 386.3 857 397.7 878.5 403.3L900 409L900 601L878.5 601C857 601 814 601 771.2 601C728.3 601 685.7 601 642.8 601C600 601 557 601 514.2 601C471.3 601 428.7 601 385.8 601C343 601 300 601 257.2 601C214.3 601 171.7 601 128.8 601C86 601 43 601 21.5 601L0 601Z" fill="#feebda"></path><path d="M0 400L21.5 400.7C43 401.3 86 402.7 128.8 411.5C171.7 420.3 214.3 436.7 257.2 436.5C300 436.3 343 419.7 385.8 417.8C428.7 416 471.3 429 514.2 432.7C557 436.3 600 430.7 642.8 432.2C685.7 433.7 728.3 442.3 771.2 444C814 445.7 857 440.3 878.5 437.7L900 435L900 601L878.5 601C857 601 814 601 771.2 601C728.3 601 685.7 601 642.8 601C600 601 557 601 514.2 601C471.3 601 428.7 601 385.8 601C343 601 300 601 257.2 601C214.3 601 171.7 601 128.8 601C86 601 43 601 21.5 601L0 601Z" fill="#dcd4c1"></path><path d="M0 432L21.5 434.7C43 437.3 86 442.7 128.8 446.5C171.7 450.3 214.3 452.7 257.2 454C300 455.3 343 455.7 385.8 455C428.7 454.3 471.3 452.7 514.2 453.3C557 454 600 457 642.8 455.8C685.7 454.7 728.3 449.3 771.2 443.7C814 438 857 432 878.5 429L900 426L900 601L878.5 601C857 601 814 601 771.2 601C728.3 601 685.7 601 642.8 601C600 601 557 601 514.2 601C471.3 601 428.7 601 385.8 601C343 601 300 601 257.2 601C214.3 601 171.7 601 128.8 601C86 601 43 601 21.5 601L0 601Z" fill="#bbbdab"></path><path d="M0 453L21.5 460.2C43 467.3 86 481.7 128.8 487.3C171.7 493 214.3 490 257.2 488.3C300 486.7 343 486.3 385.8 477.2C428.7 468 471.3 450 514.2 448.5C557 447 600 462 642.8 472.7C685.7 483.3 728.3 489.7 771.2 485C814 480.3 857 464.7 878.5 456.8L900 449L900 601L878.5 601C857 601 814 601 771.2 601C728.3 601 685.7 601 642.8 601C600 601 557 601 514.2 601C471.3 601 428.7 601 385.8 601C343 601 300 601 257.2 601C214.3 601 171.7 601 128.8 601C86 601 43 601 21.5 601L0 601Z" fill="#9ca698"></path><path d="M0 500L21.5 499.7C43 499.3 86 498.7 128.8 501.5C171.7 504.3 214.3 510.7 257.2 505C300 499.3 343 481.7 385.8 474C428.7 466.3 471.3 468.7 514.2 470.2C557 471.7 600 472.3 642.8 477C685.7 481.7 728.3 490.3 771.2 497.7C814 505 857 511 878.5 514L900 517L900 601L878.5 601C857 601 814 601 771.2 601C728.3 601 685.7 601 642.8 601C600 601 557 601 514.2 601C471.3 601 428.7 601 385.8 601C343 601 300 601 257.2 601C214.3 601 171.7 601 128.8 601C86 601 43 601 21.5 601L0 601Z" fill="#7f9086"></path><path d="M0 510L21.5 512.7C43 515.3 86 520.7 128.8 521.2C171.7 521.7 214.3 517.3 257.2 517.2C300 517 343 521 385.8 524C428.7 527 471.3 529 514.2 529C557 529 600 527 642.8 523C685.7 519 728.3 513 771.2 511.7C814 510.3 857 513.7 878.5 515.3L900 517L900 601L878.5 601C857 601 814 601 771.2 601C728.3 601 685.7 601 642.8 601C600 601 557 601 514.2 601C471.3 601 428.7 601 385.8 601C343 601 300 601 257.2 601C214.3 601 171.7 601 128.8 601C86 601 43 601 21.5 601L0 601Z" fill="#667975"></path><path d="M0 551L21.5 550.8C43 550.7 86 550.3 128.8 550.5C171.7 550.7 214.3 551.3 257.2 551.3C300 551.3 343 550.7 385.8 546.8C428.7 543 471.3 536 514.2 534.8C557 533.7 600 538.3 642.8 539.8C685.7 541.3 728.3 539.7 771.2 540.2C814 540.7 857 543.3 878.5 544.7L900 546L900 601L878.5 601C857 601 814 601 771.2 601C728.3 601 685.7 601 642.8 601C600 601 557 601 514.2 601C471.3 601 428.7 601 385.8 601C343 601 300 601 257.2 601C214.3 601 171.7 601 128.8 601C86 601 43 601 21.5 601L0 601Z" fill="#506263"></path><path d="M0 575L21.5 574.3C43 573.7 86 572.3 128.8 569C171.7 565.7 214.3 560.3 257.2 557.7C300 555 343 555 385.8 558.8C428.7 562.7 471.3 570.3 514.2 572.5C557 574.7 600 571.3 642.8 570.5C685.7 569.7 728.3 571.3 771.2 570.2C814 569 857 565 878.5 563L900 561L900 601L878.5 601C857 601 814 601 771.2 601C728.3 601 685.7 601 642.8 601C600 601 557 601 514.2 601C471.3 601 428.7 601 385.8 601C343 601 300 601 257.2 601C214.3 601 171.7 601 128.8 601C86 601 43 601 21.5 601L0 601Z" fill="#3d4c51"></path></svg>